<svg id="visual" viewBox="0 0 900 600" width="900" height="600" xmlns="http://www.w3.org/2000/svg" xmlns:xlink="http://www.w3.org/1999/xlink" version="1.1"><rect x="0" y="0" width="900" height="600" fill="#FFFFFF"></rect><defs><linearGradient id="grad1_0" x1="33.3%" y1="0%" x2="100%" y2="100%"><stop offset="20%" stop-color="#001122" stop-opacity="1"></stop><stop offset="80%" stop-color="#001122" stop-opacity="1"></stop></linearGradient></defs><defs><linearGradient id="grad1_1" x1="33.3%" y1="0%" x2="100%" y2="100%"><stop offset="20%" stop-color="#001122" stop-opacity="1"></stop><stop offset="80%" stop-color="#2f3948" stop-opacity="1"></stop></linearGradient></defs><defs><linearGradient id="grad1_2" x1="33.3%" y1="0%" x2="100%" y2="100%"><stop offset="20%" stop-color="#5e6672" stop-opacity="1"></stop><stop offset="80%" stop-color="#2f3948" stop-opacity="1"></stop></linearGradient></defs><defs><linearGradient id="grad1_3" x1="33.3%" y1="0%" x2="100%" y2="100%"><stop offset="20%" stop-color="#5e6672" stop-opacity="1"></stop><stop offset="80%" stop-color="#91969f" stop-opacity="1"></stop></linearGradient></defs><defs><linearGradient id="grad1_4" x1="33.3%" y1="0%" x2="100%" y2="100%"><stop offset="20%" stop-color="#c7c9ce" stop-opacity="1"></stop><stop offset="80%" stop-color="#91969f" stop-opacity="1"></stop></linearGradient></defs><defs><linearGradient id="grad1_5" x1="33.3%" y1="0%" x2="100%" y2="100%"><stop offset="20%" stop-color="#c7c9ce" stop-opacity="1"></stop><stop offset="80%" stop-color="#ffffff" stop-opacity="1"></stop></linearGradient></defs><defs><linearGradient id="grad2_0" x1="0%" y1="0%" x2="66.7%" y2="100%"><stop offset="20%" stop-color="#001122" stop-opacity="1"></stop><stop offset="80%" stop-color="#001122" stop-opacity="1"></stop></linearGradient></defs><defs><linearGradient id="grad2_1" x1="0%" y1="0%" x2="66.7%" y2="100%"><stop offset="20%" stop-color="#2f3948" stop-opacity="1"></stop><stop offset="80%" stop-color="#001122" stop-opacity="1"></stop></linearGradient></defs><defs><linearGradient id="grad2_2" x1="0%" y1="0%" x2="66.7%" y2="100%"><stop offset="20%" stop-color="#2f3948" stop-opacity="1"></stop><stop offset="80%" stop-color="#5e6672" stop-opacity="1"></stop></linearGradient></defs><defs><linearGradient id="grad2_3" x1="0%" y1="0%" x2="66.7%" y2="100%"><stop offset="20%" stop-color="#91969f" stop-opacity="1"></stop><stop offset="80%" stop-color="#5e6672" stop-opacity="1"></stop></linearGradient></defs><defs><linearGradient id="grad2_4" x1="0%" y1="0%" x2="66.7%" y2="100%"><stop offset="20%" stop-color="#91969f" stop-opacity="1"></stop><stop offset="80%" stop-color="#c7c9ce" stop-opacity="1"></stop></linearGradient></defs><defs><linearGradient id="grad2_5" x1="0%" y1="0%" x2="66.7%" y2="100%"><stop offset="20%" stop-color="#ffffff" stop-opacity="1"></stop><stop offset="80%" stop-color="#c7c9ce" stop-opacity="1"></stop></linearGradient></defs><g transform="translate(900, 0)"><path d="M0 432.7C-29.6 350.1 -59.1 267.6 -101 243.9C-142.9 220.2 -197.2 255.4 -253.9 253.9C-310.5 252.3 -369.5 214 -399.7 165.6C-429.9 117.1 -431.3 58.6 -432.7 0L0 0Z" fill="#e2e4e6"></path><path d="M0 360.6C-24.6 291.8 -49.3 223 -84.2 203.3C-119.1 183.5 -164.3 212.8 -211.5 211.5C-258.7 210.2 -307.9 178.3 -333.1 138C-358.3 97.6 -359.4 48.8 -360.6 0L0 0Z" fill="#abafb6"></path><path d="M0 288.4C-19.7 233.4 -39.4 178.4 -67.4 162.6C-95.3 146.8 -131.5 170.3 -169.2 169.2C-207 168.2 -246.4 142.7 -266.5 110.4C-286.6 78.1 -287.5 39 -288.4 0L0 0Z" fill="#777d88"></path><path d="M0 216.3C-14.8 175.1 -29.6 133.8 -50.5 122C-71.5 110.1 -98.6 127.7 -126.9 126.9C-155.2 126.1 -184.8 107 -199.9 82.8C-215 58.6 -215.6 29.3 -216.3 0L0 0Z" fill="#464f5d"></path><path d="M0 144.2C-9.9 116.7 -19.7 89.2 -33.7 81.3C-47.6 73.4 -65.7 85.1 -84.6 84.6C-103.5 84.1 -123.2 71.3 -133.2 55.2C-143.3 39 -143.8 19.5 -144.2 0L0 0Z" fill="#182535"></path><path d="M0 72.1C-4.9 58.4 -9.9 44.6 -16.8 40.7C-23.8 36.7 -32.9 42.6 -42.3 42.3C-51.7 42 -61.6 35.7 -66.6 27.6C-71.7 19.5 -71.9 9.8 -72.1 0L0 0Z" fill="#001122"></path></g><g transform="translate(0, 600)"><path d="M0 -432.7C57.4 -428.4 114.9 -424.1 165.6 -399.7C216.3 -375.3 260.3 -330.8 282.8 -282.8C305.4 -234.9 306.6 -183.6 328 -135.9C349.4 -88.1 391 -44.1 432.7 0L0 0Z" fill="#e2e4e6"></path><path d="M0 -360.6C47.9 -357 95.7 -353.4 138 -333.1C180.2 -312.8 216.9 -275.7 235.7 -235.7C254.5 -195.8 255.5 -153 273.3 -113.2C291.1 -73.5 325.9 -36.7 360.6 0L0 0Z" fill="#abafb6"></path><path d="M0 -288.4C38.3 -285.6 76.6 -282.8 110.4 -266.5C144.2 -250.2 173.5 -220.5 188.6 -188.6C203.6 -156.6 204.4 -122.4 218.7 -90.6C232.9 -58.8 260.7 -29.4 288.4 0L0 0Z" fill="#777d88"></path><path d="M0 -216.3C28.7 -214.2 57.4 -212.1 82.8 -199.9C108.1 -187.7 130.1 -165.4 141.4 -141.4C152.7 -117.5 153.3 -91.8 164 -67.9C174.7 -44.1 195.5 -22 216.3 0L0 0Z" fill="#464f5d"></path><path d="M0 -144.2C19.1 -142.8 38.3 -141.4 55.2 -133.2C72.1 -125.1 86.8 -110.3 94.3 -94.3C101.8 -78.3 102.2 -61.2 109.3 -45.3C116.5 -29.4 130.3 -14.7 144.2 0L0 0Z" fill="#182535"></path><path d="M0 -72.1C9.6 -71.4 19.1 -70.7 27.6 -66.6C36 -62.6 43.4 -55.1 47.1 -47.1C50.9 -39.2 51.1 -30.6 54.7 -22.6C58.2 -14.7 65.2 -7.3 72.1 0L0 0Z" fill="#001122"></path></g></svg>