<svg id="visual" viewBox="0 0 900 600" width="900" height="600" xmlns="http://www.w3.org/2000/svg" xmlns:xlink="http://www.w3.org/1999/xlink" version="1.1"><rect x="0" y="0" width="900" height="600" fill="#F2F4F6"></rect><defs><linearGradient id="grad1_0" x1="33.3%" y1="0%" x2="100%" y2="100%"><stop offset="20%" stop-color="#003367" stop-opacity="1"></stop><stop offset="80%" stop-color="#003367" stop-opacity="1"></stop></linearGradient></defs><defs><linearGradient id="grad1_1" x1="33.3%" y1="0%" x2="100%" y2="100%"><stop offset="20%" stop-color="#003367" stop-opacity="1"></stop><stop offset="80%" stop-color="#395683" stop-opacity="1"></stop></linearGradient></defs><defs><linearGradient id="grad1_2" x1="33.3%" y1="0%" x2="100%" y2="100%"><stop offset="20%" stop-color="#647c9f" stop-opacity="1"></stop><stop offset="80%" stop-color="#395683" stop-opacity="1"></stop></linearGradient></defs><defs><linearGradient id="grad1_3" x1="33.3%" y1="0%" x2="100%" y2="100%"><stop offset="20%" stop-color="#647c9f" stop-opacity="1"></stop><stop offset="80%" stop-color="#90a3bb" stop-opacity="1"></stop></linearGradient></defs><defs><linearGradient id="grad1_4" x1="33.3%" y1="0%" x2="100%" y2="100%"><stop offset="20%" stop-color="#bfcbd8" stop-opacity="1"></stop><stop offset="80%" stop-color="#90a3bb" stop-opacity="1"></stop></linearGradient></defs><defs><linearGradient id="grad1_5" x1="33.3%" y1="0%" x2="100%" y2="100%"><stop offset="20%" stop-color="#bfcbd8" stop-opacity="1"></stop><stop offset="80%" stop-color="#f2f4f6" stop-opacity="1"></stop></linearGradient></defs><defs><linearGradient id="grad2_0" x1="0%" y1="0%" x2="66.7%" y2="100%"><stop offset="20%" stop-color="#003367" stop-opacity="1"></stop><stop offset="80%" stop-color="#003367" stop-opacity="1"></stop></linearGradient></defs><defs><linearGradient id="grad2_1" x1="0%" y1="0%" x2="66.7%" y2="100%"><stop offset="20%" stop-color="#395683" stop-opacity="1"></stop><stop offset="80%" stop-color="#003367" stop-opacity="1"></stop></linearGradient></defs><defs><linearGradient id="grad2_2" x1="0%" y1="0%" x2="66.7%" y2="100%"><stop offset="20%" stop-color="#395683" stop-opacity="1"></stop><stop offset="80%" stop-color="#647c9f" stop-opacity="1"></stop></linearGradient></defs><defs><linearGradient id="grad2_3" x1="0%" y1="0%" x2="66.7%" y2="100%"><stop offset="20%" stop-color="#90a3bb" stop-opacity="1"></stop><stop offset="80%" stop-color="#647c9f" stop-opacity="1"></stop></linearGradient></defs><defs><linearGradient id="grad2_4" x1="0%" y1="0%" x2="66.7%" y2="100%"><stop offset="20%" stop-color="#90a3bb" stop-opacity="1"></stop><stop offset="80%" stop-color="#bfcbd8" stop-opacity="1"></stop></linearGradient></defs><defs><linearGradient id="grad2_5" x1="0%" y1="0%" x2="66.7%" y2="100%"><stop offset="20%" stop-color="#f2f4f6" stop-opacity="1"></stop><stop offset="80%" stop-color="#bfcbd8" stop-opacity="1"></stop></linearGradient></defs><g transform="translate(900, 0)"><path d="M0 351.5C-17.7 333.1 -35.5 314.7 -54.7 310.2C-73.9 305.8 -94.6 315.3 -114.2 313.9C-133.9 312.4 -152.6 300 -162.5 281.5C-172.4 262.9 -173.6 238.2 -194.8 232.1C-215.9 226 -257.1 238.4 -269.3 226C-281.5 213.6 -264.7 176.3 -266.7 154C-268.8 131.7 -289.6 124.3 -305.4 111.2C-321.2 98 -331.9 79.2 -338.8 59.7C-345.6 40.3 -348.6 20.1 -351.5 0L0 0Z" fill="#d8dfe7"></path><path d="M0 293C-14.8 277.6 -29.6 262.2 -45.6 258.5C-61.6 254.8 -78.8 262.7 -95.2 261.5C-111.6 260.3 -127.1 250 -135.4 234.5C-143.7 219.1 -144.7 198.5 -162.3 193.4C-179.9 188.3 -214.3 198.7 -224.4 188.3C-234.6 178 -220.6 146.9 -222.3 128.3C-224 109.7 -241.3 103.6 -254.5 92.6C-267.7 81.7 -276.6 66 -282.3 49.8C-288 33.5 -290.5 16.8 -293 0L0 0Z" fill="#a7b7ca"></path><path d="M0 234.4C-11.8 222.1 -23.7 209.8 -36.5 206.8C-49.3 203.8 -63 210.2 -76.2 209.2C-89.3 208.3 -101.7 200 -108.3 187.6C-114.9 175.3 -115.7 158.8 -129.8 154.7C-144 150.7 -171.4 158.9 -179.5 150.6C-187.7 142.4 -176.5 117.5 -177.8 102.7C-179.2 87.8 -193.1 82.8 -203.6 74.1C-214.1 65.4 -221.3 52.8 -225.8 39.8C-230.4 26.8 -232.4 13.4 -234.4 0L0 0Z" fill="#7a8fad"></path><path d="M0 175.8C-8.9 166.6 -17.7 157.3 -27.3 155.1C-37 152.9 -47.3 157.6 -57.1 156.9C-67 156.2 -76.3 150 -81.2 140.7C-86.2 131.5 -86.8 119.1 -97.4 116.1C-108 113 -128.6 119.2 -134.6 113C-140.7 106.8 -132.4 88.2 -133.4 77C-134.4 65.8 -144.8 62.1 -152.7 55.6C-160.6 49 -166 39.6 -169.4 29.9C-172.8 20.1 -174.3 10.1 -175.8 0L0 0Z" fill="#4e6991"></path><path d="M0 117.2C-5.9 111 -11.8 104.9 -18.2 103.4C-24.6 101.9 -31.5 105.1 -38.1 104.6C-44.6 104.1 -50.9 100 -54.2 93.8C-57.5 87.6 -57.9 79.4 -64.9 77.4C-72 75.3 -85.7 79.5 -89.8 75.3C-93.8 71.2 -88.2 58.8 -88.9 51.3C-89.6 43.9 -96.5 41.4 -101.8 37.1C-107.1 32.7 -110.6 26.4 -112.9 19.9C-115.2 13.4 -116.2 6.7 -117.2 0L0 0Z" fill="#224475"></path><path d="M0 58.6C-3 55.5 -5.9 52.4 -9.1 51.7C-12.3 51 -15.8 52.5 -19 52.3C-22.3 52.1 -25.4 50 -27.1 46.9C-28.7 43.8 -28.9 39.7 -32.5 38.7C-36 37.7 -42.9 39.7 -44.9 37.7C-46.9 35.6 -44.1 29.4 -44.5 25.7C-44.8 21.9 -48.3 20.7 -50.9 18.5C-53.5 16.3 -55.3 13.2 -56.5 10C-57.6 6.7 -58.1 3.4 -58.6 0L0 0Z" fill="#003367"></path></g><g transform="translate(0, 600)"><path d="M0 -351.5C17.8 -335.8 35.6 -320 56.3 -319.1C76.9 -318.2 100.4 -332.2 120.2 -330.3C140.1 -328.5 156.4 -310.9 168.5 -291.9C180.6 -272.8 188.4 -252.5 198 -235.9C207.6 -219.4 218.9 -206.6 231.3 -194.1C243.8 -181.6 257.3 -169.5 268.5 -155C279.6 -140.5 288.3 -123.8 293.2 -106.7C298.1 -89.6 299.2 -72.2 308.2 -54.4C317.3 -36.5 334.4 -18.3 351.5 0L0 0Z" fill="#d8dfe7"></path><path d="M0 -293C14.8 -279.8 29.7 -266.6 46.9 -265.9C64.1 -265.2 83.6 -276.8 100.2 -275.3C116.8 -273.8 130.4 -259 140.4 -243.2C150.5 -227.4 157 -210.4 165 -196.6C173 -182.8 182.4 -172.2 192.8 -161.8C203.2 -151.4 214.5 -141.2 223.7 -129.2C233 -117.1 240.2 -103.2 244.3 -88.9C248.4 -74.7 249.3 -60.2 256.9 -45.3C264.4 -30.4 278.7 -15.2 293 0L0 0Z" fill="#a7b7ca"></path><path d="M0 -234.4C11.9 -223.8 23.8 -213.3 37.5 -212.7C51.3 -212.1 66.9 -221.4 80.2 -220.2C93.4 -219 104.3 -207.2 112.3 -194.6C120.4 -181.9 125.6 -168.3 132 -157.3C138.4 -146.3 145.9 -137.7 154.2 -129.4C162.5 -121.1 171.6 -113 179 -103.3C186.4 -93.7 192.2 -82.5 195.5 -71.1C198.7 -59.7 199.4 -48.1 205.5 -36.2C211.6 -24.3 223 -12.2 234.4 0L0 0Z" fill="#7a8fad"></path><path d="M0 -175.8C8.9 -167.9 17.8 -160 28.1 -159.5C38.4 -159.1 50.2 -166.1 60.1 -165.2C70.1 -164.3 78.2 -155.4 84.2 -145.9C90.3 -136.4 94.2 -126.3 99 -118C103.8 -109.7 109.5 -103.3 115.7 -97.1C121.9 -90.8 128.7 -84.7 134.2 -77.5C139.8 -70.3 144.1 -61.9 146.6 -53.4C149 -44.8 149.6 -36.1 154.1 -27.2C158.7 -18.3 167.2 -9.1 175.8 0L0 0Z" fill="#4e6991"></path><path d="M0 -117.2C5.9 -111.9 11.9 -106.7 18.8 -106.4C25.6 -106.1 33.5 -110.7 40.1 -110.1C46.7 -109.5 52.1 -103.6 56.2 -97.3C60.2 -90.9 62.8 -84.2 66 -78.6C69.2 -73.1 73 -68.9 77.1 -64.7C81.3 -60.5 85.8 -56.5 89.5 -51.7C93.2 -46.8 96.1 -41.3 97.7 -35.6C99.4 -29.9 99.7 -24.1 102.7 -18.1C105.8 -12.2 111.5 -6.1 117.2 0L0 0Z" fill="#224475"></path><path d="M0 -58.6C3 -56 5.9 -53.3 9.4 -53.2C12.8 -53 16.7 -55.4 20 -55.1C23.4 -54.8 26.1 -51.8 28.1 -48.6C30.1 -45.5 31.4 -42.1 33 -39.3C34.6 -36.6 36.5 -34.4 38.6 -32.4C40.6 -30.3 42.9 -28.2 44.7 -25.8C46.6 -23.4 48 -20.6 48.9 -17.8C49.7 -14.9 49.9 -12 51.4 -9.1C52.9 -6.1 55.7 -3 58.6 0L0 0Z" fill="#003367"></path></g></svg>