<svg id="visual" viewBox="0 0 900 600" width="900" height="600" xmlns="http://www.w3.org/2000/svg" xmlns:xlink="http://www.w3.org/1999/xlink" version="1.1"><rect x="0" y="0" width="900" height="600" fill="#F2F4F6"></rect><g fill="none" stroke="#001122" stroke-width="6"><circle r="53" cx="773" cy="73"></circle><circle r="9" cx="491" cy="124"></circle><circle r="35" cx="189" cy="358"></circle><circle r="33" cx="65" cy="189"></circle><circle r="33" cx="805" cy="525"></circle><circle r="18" cx="592" cy="545"></circle><circle r="29" cx="184" cy="62"></circle><circle r="12" cx="841" cy="222"></circle><circle r="47" cx="353" cy="543"></circle><circle r="17" cx="559" cy="317"></circle><circle r="38" cx="677" cy="373"></circle><circle r="43" cx="703" cy="253"></circle><circle r="8" cx="63" cy="463"></circle><circle r="38" cx="316" cy="427"></circle><circle r="28" cx="216" cy="530"></circle><circle r="13" cx="407" cy="207"></circle><circle r="24" cx="299" cy="192"></circle><circle r="31" cx="607" cy="129"></circle><circle r="12" cx="299" cy="68"></circle></g></svg>