<svg id="visual" viewBox="0 0 900 600" width="900" height="600" xmlns="http://www.w3.org/2000/svg" xmlns:xlink="http://www.w3.org/1999/xlink" version="1.1"><rect x="0" y="0" width="900" height="600" fill="#F2F4F6"></rect><path d="M0 334L10 342C20 350 40 366 60 364.7C80 363.3 100 344.7 120 336.2C140 327.7 160 329.3 180 338.2C200 347 220 363 240 375.7C260 388.3 280 397.7 300 392.5C320 387.3 340 367.7 360 355.3C380 343 400 338 420 337C440 336 460 339 480 345.7C500 352.3 520 362.7 540 359.3C560 356 580 339 600 326.8C620 314.7 640 307.3 660 310.5C680 313.7 700 327.3 720 343.7C740 360 760 379 780 386.8C800 394.7 820 391.3 840 375.8C860 360.3 880 332.7 890 318.8L900 305L900 601L890 601C880 601 860 601 840 601C820 601 800 601 780 601C760 601 740 601 720 601C700 601 680 601 660 601C640 601 620 601 600 601C580 601 560 601 540 601C520 601 500 601 480 601C460 601 440 601 420 601C400 601 380 601 360 601C340 601 320 601 300 601C280 601 260 601 240 601C220 601 200 601 180 601C160 601 140 601 120 601C100 601 80 601 60 601C40 601 20 601 10 601L0 601Z" fill="#4facf7"></path><path d="M0 408L10 408.5C20 409 40 410 60 411.7C80 413.3 100 415.7 120 405.3C140 395 160 372 180 358.8C200 345.7 220 342.3 240 347.8C260 353.3 280 367.7 300 374C320 380.3 340 378.7 360 384.2C380 389.7 400 402.3 420 404.7C440 407 460 399 480 391.8C500 384.7 520 378.3 540 378.3C560 378.3 580 384.7 600 394.2C620 403.7 640 416.3 660 418.5C680 420.7 700 412.3 720 408.2C740 404 760 404 780 398.7C800 393.3 820 382.7 840 382.7C860 382.7 880 393.3 890 398.7L900 404L900 601L890 601C880 601 860 601 840 601C820 601 800 601 780 601C760 601 740 601 720 601C700 601 680 601 660 601C640 601 620 601 600 601C580 601 560 601 540 601C520 601 500 601 480 601C460 601 440 601 420 601C400 601 380 601 360 601C340 601 320 601 300 601C280 601 260 601 240 601C220 601 200 601 180 601C160 601 140 601 120 601C100 601 80 601 60 601C40 601 20 601 10 601L0 601Z" fill="#428fcf"></path><path d="M0 400L10 403.5C20 407 40 414 60 417C80 420 100 419 120 419.5C140 420 160 422 180 424.3C200 426.7 220 429.3 240 426C260 422.7 280 413.3 300 411C320 408.7 340 413.3 360 419.7C380 426 400 434 420 431.8C440 429.7 460 417.3 480 417.2C500 417 520 429 540 435.8C560 442.7 580 444.3 600 433.5C620 422.7 640 399.3 660 399.7C680 400 700 424 720 438.5C740 453 760 458 780 447.8C800 437.7 820 412.3 840 410.7C860 409 880 431 890 442L900 453L900 601L890 601C880 601 860 601 840 601C820 601 800 601 780 601C760 601 740 601 720 601C700 601 680 601 660 601C640 601 620 601 600 601C580 601 560 601 540 601C520 601 500 601 480 601C460 601 440 601 420 601C400 601 380 601 360 601C340 601 320 601 300 601C280 601 260 601 240 601C220 601 200 601 180 601C160 601 140 601 120 601C100 601 80 601 60 601C40 601 20 601 10 601L0 601Z" fill="#3474a9"></path><path d="M0 482L10 477.8C20 473.7 40 465.3 60 455C80 444.7 100 432.3 120 434.3C140 436.3 160 452.7 180 455.5C200 458.3 220 447.7 240 438.8C260 430 280 423 300 430C320 437 340 458 360 465.2C380 472.3 400 465.7 420 462.5C440 459.3 460 459.7 480 464.2C500 468.7 520 477.3 540 474.7C560 472 580 458 600 457.8C620 457.7 640 471.3 660 477.2C680 483 700 481 720 472.5C740 464 760 449 780 445.8C800 442.7 820 451.3 840 453C860 454.7 880 449.3 890 446.7L900 444L900 601L890 601C880 601 860 601 840 601C820 601 800 601 780 601C760 601 740 601 720 601C700 601 680 601 660 601C640 601 620 601 600 601C580 601 560 601 540 601C520 601 500 601 480 601C460 601 440 601 420 601C400 601 380 601 360 601C340 601 320 601 300 601C280 601 260 601 240 601C220 601 200 601 180 601C160 601 140 601 120 601C100 601 80 601 60 601C40 601 20 601 10 601L0 601Z" fill="#275984"></path><path d="M0 468L10 470.5C20 473 40 478 60 485.3C80 492.7 100 502.3 120 506.2C140 510 160 508 180 499.5C200 491 220 476 240 475.3C260 474.7 280 488.3 300 495.3C320 502.3 340 502.7 360 504.2C380 505.7 400 508.3 420 505.8C440 503.3 460 495.7 480 497C500 498.3 520 508.7 540 503.3C560 498 580 477 600 471C620 465 640 474 660 484.5C680 495 700 507 720 507C740 507 760 495 780 492.2C800 489.3 820 495.7 840 494.3C860 493 880 484 890 479.5L900 475L900 601L890 601C880 601 860 601 840 601C820 601 800 601 780 601C760 601 740 601 720 601C700 601 680 601 660 601C640 601 620 601 600 601C580 601 560 601 540 601C520 601 500 601 480 601C460 601 440 601 420 601C400 601 380 601 360 601C340 601 320 601 300 601C280 601 260 601 240 601C220 601 200 601 180 601C160 601 140 601 120 601C100 601 80 601 60 601C40 601 20 601 10 601L0 601Z" fill="#1a4061"></path><path d="M0 494L10 499C20 504 40 514 60 518.7C80 523.3 100 522.7 120 525C140 527.3 160 532.7 180 537C200 541.3 220 544.7 240 544.2C260 543.7 280 539.3 300 535.3C320 531.3 340 527.7 360 528.8C380 530 400 536 420 533.3C440 530.7 460 519.3 480 515.7C500 512 520 516 540 516.2C560 516.3 580 512.7 600 516.5C620 520.3 640 531.7 660 537.3C680 543 700 543 720 539.5C740 536 760 529 780 521.2C800 513.3 820 504.7 840 507.3C860 510 880 524 890 531L900 538L900 601L890 601C880 601 860 601 840 601C820 601 800 601 780 601C760 601 740 601 720 601C700 601 680 601 660 601C640 601 620 601 600 601C580 601 560 601 540 601C520 601 500 601 480 601C460 601 440 601 420 601C400 601 380 601 360 601C340 601 320 601 300 601C280 601 260 601 240 601C220 601 200 601 180 601C160 601 140 601 120 601C100 601 80 601 60 601C40 601 20 601 10 601L0 601Z" fill="#0d2840"></path><path d="M0 572L10 571.3C20 570.7 40 569.3 60 563C80 556.7 100 545.3 120 545.2C140 545 160 556 180 562.2C200 568.3 220 569.7 240 568.2C260 566.7 280 562.3 300 556C320 549.7 340 541.3 360 537.3C380 533.3 400 533.7 420 535.7C440 537.7 460 541.3 480 541C500 540.7 520 536.3 540 537.5C560 538.7 580 545.3 600 546.5C620 547.7 640 543.3 660 542C680 540.7 700 542.3 720 547.8C740 553.3 760 562.7 780 560.7C800 558.7 820 545.3 840 544.7C860 544 880 556 890 562L900 568L900 601L890 601C880 601 860 601 840 601C820 601 800 601 780 601C760 601 740 601 720 601C700 601 680 601 660 601C640 601 620 601 600 601C580 601 560 601 540 601C520 601 500 601 480 601C460 601 440 601 420 601C400 601 380 601 360 601C340 601 320 601 300 601C280 601 260 601 240 601C220 601 200 601 180 601C160 601 140 601 120 601C100 601 80 601 60 601C40 601 20 601 10 601L0 601Z" fill="#001122"></path></svg>