<svg id="visual" viewBox="0 0 900 600" width="900" height="600" xmlns="http://www.w3.org/2000/svg" xmlns:xlink="http://www.w3.org/1999/xlink" version="1.1"><rect x="0" y="0" width="900" height="600" fill="#001122"></rect><path d="M0 528L33 528L33 346L67 346L67 449L100 449L100 462L133 462L133 351L167 351L167 518L200 518L200 352L233 352L233 552L267 552L267 408L300 408L300 398L333 398L333 480L367 480L367 374L400 374L400 351L433 351L433 537L467 537L467 454L500 454L500 428L533 428L533 423L567 423L567 504L600 504L600 513L633 513L633 407L667 407L667 374L700 374L700 491L733 491L733 359L767 359L767 393L800 393L800 346L833 346L833 377L867 377L867 348L900 348L900 369L900 601L900 601L867 601L867 601L833 601L833 601L800 601L800 601L767 601L767 601L733 601L733 601L700 601L700 601L667 601L667 601L633 601L633 601L600 601L600 601L567 601L567 601L533 601L533 601L500 601L500 601L467 601L467 601L433 601L433 601L400 601L400 601L367 601L367 601L333 601L333 601L300 601L300 601L267 601L267 601L233 601L233 601L200 601L200 601L167 601L167 601L133 601L133 601L100 601L100 601L67 601L67 601L33 601L33 601L0 601Z" fill="#ffffff" stroke-linecap="square" stroke-linejoin="miter"></path></svg>